<?xml version="1.0" encoding="utf-8"?>
<!-- Generator: Adobe Illustrator 19.0.0, SVG Export Plug-In . SVG Version: 6.00 Build 0)  -->
<svg version="1.1" id="Layer_1" xmlns="http://www.w3.org/2000/svg" xmlns:xlink="http://www.w3.org/1999/xlink" x="0px" y="0px"
	 viewBox="0 0 85.1 45.2" style="enable-background:new 0 0 85.1 45.2;" xml:space="preserve">
<style type="text/css">
	.st0{fill:#F2F2F2;}
</style>
<g id="XMLID_59_">
	<path id="XMLID_60_" class="st0" d="M78.8,25c0.1,0.2,0,0.5-0.3,0.6s-0.6,0-0.7-0.2c-0.1-0.2,0.1-0.5,0.3-0.6
		C78.4,24.7,78.7,24.8,78.8,25z M83.5,21.9c0,1.6-0.4,3-1.3,3.7c-0.5,0.5-1.9,1.1-3,1.3c-0.5,0.1-1.1,0.6-1.5,0.9
		c-0.2,0.1-0.3,0.2-0.3,0.3c-0.3,0.2-0.5,0.1-0.6,0.1c-0.3-0.1-0.5-0.4-0.6-0.6c0-0.1-0.1-0.2-0.2-0.3c-0.2,0-0.4,0-0.6,0
		c-0.4,0-0.6,0.1-0.9,0.1c-0.8,0.1-1.4,0.3-2-0.3c-0.3-0.4-0.5-0.9-0.6-1.3c0-0.2-0.1-0.4-0.1-0.5c-1.7,0.3-3.5,0.1-3.9,0
		c-0.1,0.8-0.6,1.6-1.2,2.2c-0.2,0.3-0.4,0.6-0.6,0.8c-0.2,0.3-0.4,0.5-0.6,0.8l-0.2,0.4c-0.5,1-1.1,1.9-1.3,2.7
		c0.1,0.2,0.1,0.5-0.1,0.6c-0.2,0.2-0.5,0.1-0.7-0.1c-0.3,0.1-0.7,0.1-1,0.1c-0.9,0-1.8-0.2-2.4-0.7l0.1-0.1
		c-0.1-0.2-0.3-0.3-0.4-0.4c-1.1,0.4-2.1,0.6-3.2,0.6c0,0.4,0.1,0.8,0.1,1.1c0,1.2,0,2.1,0,3c0,0.9,0,1.9,0,3.2c0,0.1,0,0.1,0.1,0.1
		c0.7,0.4,2,0.8,3.1,1.1c2.2,0.7,3.2,1,3.2,1.7c0,0.2-0.1,0.4-0.3,0.6c-0.5,0.5-1.6,0.5-2.2,0.5c-0.1,0-0.2,0-0.2,0
		c-0.6,0-1.3-0.2-1.9-0.3c-0.3-0.1-0.8-0.2-0.9-0.2c-0.7,0.2-2.5,0.1-3-0.1c-0.3-0.1-0.6-0.2-0.8-0.6c-0.2-0.5-0.3-1.2-0.4-1.8
		c0-0.2,0-0.4-0.1-0.5c0-0.1-0.2-0.8-0.5-1.5c-0.6-1.7-1.4-4.3-1.9-6.2c-1.2,0.1-2.6,0.1-4,0.1c-0.9,0-2.9,0-3.6-0.2
		c-7.3,1.7-12.3,2.3-16.9,1.8c-4.3-0.4-13.9,0.7-18,1.7c-0.5,0.1-1,0.2-1.3,0.4c-0.7,0.6-2.7,3.5-2.9,4.9c0,0.1,0.4,0.4,0.6,0.6
		c0.4,0.3,0.7,0.5,0.6,1c-0.1,0.3-0.4,0.9-1.5,0.9l0,0c-0.8,0-1.8-0.3-2.3-1c-0.6-0.9-0.4-3.1-0.1-4.2c0.1-0.3,0.2-0.7,0.4-1
		c0.1-0.2,0.2-0.5,0.2-0.6c-0.6-1.1-0.5-2.6-0.1-3.4c0.2-0.4,0.4-0.9,0.8-0.9C3.3,32,3.7,32,4.2,32.1c0.3,0,0.7,0,1.4,0
		c0.7-0.1,1.5-0.2,2.3-0.4c2.5-0.6,5-1.6,7.1-2.5c1.4-0.6,2.5-1,3.2-1.2c1.1-0.2,2.1-0.3,2.9-0.4c0.9-0.1,1.8-0.1,2.6-0.4
		c3.8-1.2,8.6-2.3,11.9-2.8c0.1,0,0.4-0.3,0.6-0.6c0.7-0.6,1.7-1.7,3.8-1.8c1.3-0.1,2.7,0.3,4.1,0.7c0.9,0.2,1.7,0.4,2.5,0.6
		c0.5,0.1,0.9,0.1,1.4,0.1c2.8-0.2,5.4-1.2,6.7-1.8c2-0.9,5.4-2.5,7.7-2.5c0.2,0,0.5,0,0.9,0c1.1-0.1,2.7-0.2,3.8,0.2
		c1.1,0.3,1.9,0.1,2.6-0.2l0.6-1.4c0.5-1.2,0.9-1.9,3-2.1c0.1,0,0.5-0.4,0.6-0.5c0.1-0.1,0.3-0.2,0.3-0.3c0.7-0.6,1.6-0.8,2.7-0.8
		c1.8,0,3.8,0.7,4.6,1.7C83,17.4,83.7,19.6,83.5,21.9z M7.6,35.3c-0.3-0.7-0.3-1.6-0.1-2.6c-0.6,0.1-1.3,0.2-1.8,0.3
		c-0.8,0-1.2,0-1.6,0c-0.4,0-0.7,0-1.4,0.1c-0.2,0.2-0.8,1.9-0.1,3.1c0.2,0.4,0,0.8-0.2,1.4c-0.1,0.3-0.3,0.6-0.3,0.8
		c-0.3,1.4-0.3,3,0,3.4c0.3,0.4,0.9,0.6,1.5,0.6c0.3,0,0.4,0,0.5-0.1C4,42.2,4,42.2,3.9,42.1c-0.4-0.3-1-0.8-0.9-1.4
		c0.3-1.6,2.4-4.8,3.8-5.3C7,35.4,7.3,35.4,7.6,35.3z M64.8,28.7c0.1-0.1,0.1-0.2,0.2-0.3c-1.1,0.3-2.6,0.4-3.9,0.4
		c-0.7,0-1.9,0.1-3,0.3c-0.5,0.1-1.1,0.1-1.5,0.2c-0.3,0-0.5,0.3-0.5,0.5c0,0.5,0,1,0.1,1.5c1.1,0,2.1-0.2,3.2-0.6h0.2
		c0.4,0,0.8,0.4,1.1,0.7c0.5,0.3,1.4,0.6,2.6,0.4c0.3-0.9,0.8-1.8,1.3-2.8L64.8,28.7z M81.6,24.9c0.2-0.2,0.4-0.4,0.5-0.7
		c-1.9-0.8-3.4-2-4.6-3.6C77.1,20,76.9,20,76.8,20s-0.3,0.1-0.4,0.1c-0.4,0.1-1,0.3-1.5-0.1c-0.2-0.2-0.5-0.3-0.7-0.3
		c-0.8,0-1.6,1-2.1,1.7c-0.5,0.6-0.7,0.9-1.1,0.9h-0.2l-0.2-0.2c-0.2-0.2-0.3-0.5-0.3-0.8c0-0.9,1.1-1.9,2-2.6c0,0-0.1-0.1-0.2-0.2
		c0,0-0.1,0-0.1-0.1c-0.4,0.3-0.8,0.5-1.2,0.8c-0.9,0.6-2.1,1.2-4.1,0.7c-1-0.3-2.5-0.2-3.5-0.1c-0.4,0-0.7,0-0.9,0
		c-2.1,0-5.5,1.6-7.3,2.4c-1.4,0.6-4.1,1.7-7,1.9c-0.4,0-0.7,0-1.1,0c-0.5,2.3-0.4,4.8,0.5,7.7l0,0c1.2,0,2.3,0,3.3-0.1
		c-0.1-0.3-0.1-0.5-0.1-0.7c-0.1-1-0.1-3.3-0.2-4.5c0-0.7,0.4-1.2,1-1.4c0.7-0.2,1.9-0.6,2.5-0.9l0.2-0.1c1.1-0.5,2.2-1,4-1.4
		c0.8-0.2,1.5-0.3,2.2-0.4c0.6-0.1,1.3-0.2,1.8-0.3c0.2,0,0.5,0.1,0.5,0.3c0.1,0.2-0.1,0.5-0.3,0.5c-0.6,0.1-1.2,0.2-1.9,0.3
		s-1.4,0.2-2.2,0.4c-1.7,0.3-2.6,0.8-3.7,1.3L54.3,25c-0.6,0.3-1.7,0.6-2.7,0.9c-0.2,0.1-0.4,0.3-0.3,0.5c0,1.2,0.1,3.5,0.2,4.5
		c0.1,1.4,1.4,5.4,2.1,7.6c0.3,1,0.5,1.4,0.5,1.6l0,0l0,0c0,0.2,0,0.3,0.1,0.6c0.1,0.5,0.1,1.1,0.3,1.5c0,0,0.1,0.1,0.2,0.1
		c0.3,0.1,1.9,0.2,2.5,0c0.3-0.1,0.6,0,1.3,0.2c0.5,0.1,1.2,0.3,1.7,0.3c0.7,0,1.3-0.1,1.6-0.2c-0.5-0.2-1.6-0.6-2.5-0.8
		c-1.2-0.4-2.5-0.7-3.3-1.2c-0.3-0.2-0.5-0.5-0.5-0.9c0-1.4,0-2.3,0-3.3c0-0.9,0-1.8,0-3c0-0.4-0.1-1-0.1-1.5
		c-0.1-0.7-0.2-1.5-0.2-2.1c0-0.7,0.6-1.4,1.3-1.4c0.4,0,0.9-0.1,1.5-0.2c1.1-0.2,2.3-0.3,3.1-0.3c1.8,0.1,3.8-0.3,4.6-0.7
		c0.2-0.1,0.3-0.2,0.5-0.3l0,0c0.5-0.5,1-1.3,1-1.9c0-0.5,0-0.7,0-0.7c0-0.2,0.2-0.5,0.4-0.5c0.3,0,0.5,0.2,0.5,0.4c0,0,0,0,0,0.2
		l0,0c0,0,2.1,0.3,3.9,0h0.1h0.1c0.6,0,0.8,0.7,0.9,1.3c0.1,0.3,0.2,0.7,0.3,0.9c0.2,0.2,0.4,0.2,1.1,0.1c0.1,0,0.1,0,0.2,0
		c0.1-0.3,0.3-0.6,0.5-0.6s0.3,0.3,0.4,0.5c0.2,0,0.4,0,0.6,0c0.6,0,0.9,0.5,1,0.8l0,0c0,0,0.1,0,0.1-0.1c0.4-0.4,1.2-1,1.9-1.1
		C80.1,25.8,81.2,25.3,81.6,24.9z"/>
</g>
</svg>
